<svg width="118" height="55" viewBox="0 0 118 55" fill="none" xmlns="http://www.w3.org/2000/svg">
<g clip-path="url(#clip0_62_98)">
<path d="M39.274 0.910767L31.7952 15.3912" stroke="#231F20" stroke-width="4" stroke-miterlimit="10"/>
<path d="M23.1588 0.910767L30.6376 15.3912" stroke="#231F20" stroke-width="4" stroke-miterlimit="10"/>
<path d="M48.5383 0.335083L56.0171 14.8191" stroke="#231F20" stroke-width="4" stroke-miterlimit="10"/>
<path d="M64.6536 0.335083L57.1747 14.8191" stroke="#231F20" stroke-width="4" stroke-miterlimit="10"/>
<path d="M80.0649 0.335083L87.5438 14.8191" stroke="#231F20" stroke-width="4" stroke-miterlimit="10"/>
<path d="M96.1803 0.335083L88.7014 14.8191" stroke="#231F20" stroke-width="4" stroke-miterlimit="10"/>
<path d="M50.1748 12.9509H11.1004C5.07 12.9509 0.181427 17.8585 0.181427 23.9123V43.2924C0.181427 49.3462 5.07 54.2537 11.1004 54.2537H50.1748C56.2052 54.2537 61.0938 49.3462 61.0938 43.2924V23.9123C61.0938 17.8585 56.2052 12.9509 50.1748 12.9509Z" fill="#548ACC"/>
<path d="M39.666 18.6957H11.4596C7.10671 18.6957 3.57797 22.2381 3.57797 26.608V40.5966C3.57797 44.9664 7.10671 48.5089 11.4596 48.5089H39.666C44.0189 48.5089 47.5476 44.9664 47.5476 40.5966V26.608C47.5476 22.2381 44.0189 18.6957 39.666 18.6957Z" fill="white"/>
<path d="M54.1483 32.8259C55.7717 32.8259 57.0876 31.5048 57.0876 29.8752C57.0876 28.2455 55.7717 26.9244 54.1483 26.9244C52.525 26.9244 51.209 28.2455 51.209 29.8752C51.209 31.5048 52.525 32.8259 54.1483 32.8259Z" fill="white" stroke="#231F20" stroke-miterlimit="10"/>
<path d="M54.1483 42.7491C55.7717 42.7491 57.0876 41.428 57.0876 39.7984C57.0876 38.1687 55.7717 36.8477 54.1483 36.8477C52.525 36.8477 51.209 38.1687 51.209 39.7984C51.209 41.428 52.525 42.7491 54.1483 42.7491Z" fill="white" stroke="#231F20" stroke-miterlimit="10"/>
<path d="M75.5544 12.9395H36.4799C30.4495 12.9395 25.561 17.847 25.561 23.9008V43.2809C25.561 49.3347 30.4495 54.2423 36.4799 54.2423H75.5544C81.5848 54.2423 86.4733 49.3347 86.4733 43.2809V23.9008C86.4733 17.847 81.5848 12.9395 75.5544 12.9395Z" fill="#F68952"/>
<path d="M65.0455 18.6842H36.8392C32.4863 18.6842 28.9575 22.2267 28.9575 26.5965V40.5851C28.9575 44.955 32.4863 48.4974 36.8392 48.4974H65.0455C69.3984 48.4974 72.9272 44.955 72.9272 40.5851V26.5965C72.9272 22.2267 69.3984 18.6842 65.0455 18.6842Z" fill="white"/>
<path d="M79.5279 32.2503C81.1512 32.2503 82.4672 30.9292 82.4672 29.2996C82.4672 27.67 81.1512 26.3489 79.5279 26.3489C77.9046 26.3489 76.5886 27.67 76.5886 29.2996C76.5886 30.9292 77.9046 32.2503 79.5279 32.2503Z" fill="white" stroke="#231F20" stroke-miterlimit="10"/>
<path d="M79.5279 42.1771C81.1512 42.1771 82.4672 40.856 82.4672 39.2264C82.4672 37.5967 81.1512 36.2756 79.5279 36.2756C77.9046 36.2756 76.5886 37.5967 76.5886 39.2264C76.5886 40.856 77.9046 42.1771 79.5279 42.1771Z" fill="white" stroke="#231F20" stroke-miterlimit="10"/>
<path d="M107.081 12.9395H68.0066C61.9762 12.9395 57.0876 17.847 57.0876 23.9008V43.2809C57.0876 49.3347 61.9762 54.2423 68.0066 54.2423H107.081C113.111 54.2423 118 49.3347 118 43.2809V23.9008C118 17.847 113.111 12.9395 107.081 12.9395Z" fill="#EA5B6F"/>
<path d="M96.5721 18.6842H68.3658C64.0129 18.6842 60.4841 22.2267 60.4841 26.5965V40.5851C60.4841 44.955 64.0129 48.4974 68.3658 48.4974H96.5721C100.925 48.4974 104.454 44.955 104.454 40.5851V26.5965C104.454 22.2267 100.925 18.6842 96.5721 18.6842Z" fill="white"/>
<path d="M111.055 32.2503C112.678 32.2503 113.994 30.9292 113.994 29.2996C113.994 27.67 112.678 26.3489 111.055 26.3489C109.431 26.3489 108.115 27.67 108.115 29.2996C108.115 30.9292 109.431 32.2503 111.055 32.2503Z" fill="white"/>
<path d="M111.055 42.1771C112.678 42.1771 113.994 40.856 113.994 39.2264C113.994 37.5967 112.678 36.2756 111.055 36.2756C109.431 36.2756 108.115 37.5967 108.115 39.2264C108.115 40.856 109.431 42.1771 111.055 42.1771Z" fill="white"/>
</g>
<defs>
<clipPath id="clip0_62_98">
<rect width="118" height="55" fill="white"/>
</clipPath>
</defs>
</svg>
